<svg width="74" height="76" viewBox="0 0 74 76" fill="none" xmlns="http://www.w3.org/2000/svg">
<path d="M3.43596 33.9334C2.99232 34.0724 2.51989 34.0919 2.06627 33.9902C1.61266 33.8884 1.19387 33.6689 0.852095 33.3538C0.510322 33.0386 0.257638 32.639 0.119493 32.1951C-0.0186521 31.7512 -0.0373783 31.2787 0.0652022 30.8253C1.60433 24.4221 7.45682 8.76299 28.7776 2.1768C38.0131 -0.676101 46.8699 -0.724804 55.0913 2.03097C61.8548 4.28869 66.3448 7.82173 68.4926 9.52937C69.0383 9.96109 69.3901 10.5919 69.4707 11.283C69.5513 11.9742 69.354 12.669 68.9223 13.2147C68.9169 13.2215 68.9116 13.2282 68.9062 13.2349C68.4628 13.7823 67.8222 14.1335 67.1223 14.213C66.4224 14.2924 65.7193 14.0937 65.1646 13.6596C61.2733 10.5937 49.4649 1.27937 30.3267 7.19134C11.6394 12.964 6.56318 26.4666 5.24655 31.991C5.14656 32.4473 4.92575 32.8684 4.60722 33.2101C4.28869 33.5518 3.88415 33.8017 3.43596 33.9334Z" fill="#348886"/>
<path d="M61.5478 70.2019C61.336 70.2703 61.1163 70.3116 60.8941 70.3247C44.2377 71.2219 33.6401 57.3841 33.205 56.8072L33.1244 56.674C32.8588 56.2621 26.4465 46.5059 29.2694 38.7577C30.566 35.2155 33.4337 32.7291 37.8169 31.3751C41.8934 30.1158 45.2292 30.4883 48.0686 32.5158C50.3967 34.1677 51.8888 36.6311 53.335 39.01C56.3427 43.9493 58.186 46.4623 63.903 45.0125C66.4132 44.3754 67.5853 42.4128 68.1207 40.884C69.5624 36.7239 68.2847 31.0526 64.9043 26.7618C60.537 21.1952 48.315 11.9494 33.2353 16.6076C26.7958 18.5969 21.5257 22.5169 17.9964 27.9146C15.0727 32.3942 13.373 37.9578 13.3358 43.1462C13.2771 52.8068 21.1945 65.5164 21.2696 65.6315C21.4519 65.9231 21.575 66.2477 21.6318 66.5869C21.6887 66.926 21.6782 67.2731 21.6009 67.6081C21.5236 67.9432 21.3811 68.2598 21.1815 68.5398C20.9818 68.8198 20.729 69.0578 20.4374 69.2401C20.4293 69.2452 20.4212 69.2502 20.4131 69.2551C19.8157 69.6277 19.0957 69.7504 18.4086 69.5966C17.7215 69.4429 17.1225 69.025 16.7409 68.4333C16.3835 67.8522 7.92937 54.3007 7.99748 43.1355C8.09229 31.0333 15.4466 16.5899 31.6807 11.575C39.1845 9.25704 47.0702 9.64663 54.4911 12.6892C60.2429 15.0619 65.5661 18.9896 69.0855 23.4745C73.5807 29.1992 75.1644 36.6927 73.118 42.5413C71.7538 46.4403 68.9294 49.1306 65.1759 50.0925C55.3932 52.581 51.5609 46.3156 48.7659 41.7452C45.8958 37.0597 44.3083 34.8629 39.3479 36.3952C36.6241 37.2366 34.9462 38.5848 34.2404 40.5219C33.2801 43.1699 34.1902 46.5639 35.1228 48.9433C35.1325 48.9682 35.1422 48.993 35.1519 49.0178C36.3475 52.0421 38.2134 54.7559 40.6092 56.955C44.447 60.4991 51.5717 65.5516 60.6523 65.0644C61.3465 65.0213 62.0295 65.2557 62.5508 65.7161C63.0722 66.1765 63.3893 66.8251 63.4325 67.5193C63.433 67.5277 63.4335 67.5361 63.4339 67.5445C63.4552 68.1331 63.282 68.7124 62.9411 69.1928C62.6002 69.6731 62.1105 70.0278 61.5478 70.2019Z" fill="#348886"/>
<path d="M41.3494 75.1756C41.0022 75.2831 40.6368 75.319 40.2754 75.2812C39.9139 75.2435 39.5638 75.1328 39.2463 74.9559C31.0311 70.3013 25.2639 64.0408 21.111 55.2663L21.0943 55.2122C18.4769 49.3619 16.9013 40.4235 20.3768 32.8688C22.9426 27.2945 27.7588 23.3764 34.6673 21.2423C42.8385 18.7181 50.4469 20.5765 56.6913 26.5908C59.5311 29.3666 61.8405 32.6374 63.506 36.2424C63.7715 36.891 63.771 37.618 63.5045 38.2663C63.2381 38.9145 62.7273 39.4318 62.0824 39.7063C61.4375 39.9809 60.7106 39.9905 60.0587 39.7331C59.4068 39.4758 58.8824 38.9722 58.5989 38.3312C57.1888 35.3224 55.2417 32.596 52.8533 30.2858C48.0402 25.7065 42.445 24.3525 36.2039 26.2804C30.8106 27.9465 27.0967 30.8918 25.1956 35.0357C22.454 41.0003 23.8655 48.4481 25.9138 53.0318C29.5756 60.7923 34.6549 66.297 41.8854 70.3864C42.1841 70.5548 42.4467 70.7805 42.6582 71.0504C42.8697 71.3203 43.0259 71.6293 43.118 71.9596C43.2101 72.2899 43.2362 72.6351 43.1949 72.9755C43.1536 73.3159 43.0456 73.6449 42.8772 73.9435C42.8705 73.9554 42.8637 73.9671 42.8569 73.9789C42.5201 74.5508 41.9828 74.9773 41.3494 75.1756Z" fill="#348886"/>
<path d="M42.2146 48.9453C44.0913 48.9453 45.6128 47.4239 45.6128 45.5471C45.6128 43.6703 44.0913 42.1489 42.2146 42.1489C40.3378 42.1489 38.8163 43.6703 38.8163 45.5471C38.8163 47.4239 40.3378 48.9453 42.2146 48.9453Z" fill="#E6E6E6"/>
</svg>
